{
    "asset": {
        "generator": "https://3dviewer.net",
        "version": "2.0"
    },
    "scene": 0,
    "scenes": [
        {
            "nodes": [
                0,
                1,
                2
            ]
        }
    ],
    "nodes": [
        {
            "mesh": 0
        },
        {
            "mesh": 1
        },
        {
            "mesh": 2
        }
    ],
    "materials": [
        {
            "name": "Material",
            "pbrMetallicRoughness": {
                "baseColorFactor": [
                    0.5775804404214573,
                    0.5775804404214573,
                    0.5775804404214573,
                    1
                ]
            },
            "emissiveFactor": [
                0,
                0,
                0
            ],
            "doubleSided": true,
            "alphaMode": "OPAQUE"
        }
    ],
    "meshes": [
        {
            "name": "Plane",
            "primitives": [
                {
                    "attributes": {
                        "POSITION": 1,
                        "NORMAL": 2,
                        "TEXCOORD_0": 3
                    },
                    "mode": 4,
                    "material": 0,
                    "indices": 0
                }
            ]
        },
        {
            "name": "Cube.001",
            "primitives": [
                {
                    "attributes": {
                        "POSITION": 5,
                        "NORMAL": 6,
                        "TEXCOORD_0": 7
                    },
                    "mode": 4,
                    "material": 0,
                    "indices": 4
                }
            ]
        },
        {
            "name": "Cube.002",
            "primitives": [
                {
                    "attributes": {
                        "POSITION": 9,
                        "NORMAL": 10,
                        "TEXCOORD_0": 11
                    },
                    "mode": 4,
                    "material": 0,
                    "indices": 8
                }
            ]
        }
    ],
    "buffers": [
        {
            "uri": "model.bin",
            "byteLength": 12696
        }
    ],
    "bufferViews": [
        {
            "buffer": 0,
            "byteOffset": 0,
            "byteLength": 2232
        },
        {
            "buffer": 0,
            "byteOffset": 2232,
            "byteLength": 3240
        },
        {
            "buffer": 0,
            "byteOffset": 5472,
            "byteLength": 3240
        },
        {
            "buffer": 0,
            "byteOffset": 8712,
            "byteLength": 2160
        },
        {
            "buffer": 0,
            "byteOffset": 10872,
            "byteLength": 144
        },
        {
            "buffer": 0,
            "byteOffset": 11016,
            "byteLength": 288
        },
        {
            "buffer": 0,
            "byteOffset": 11304,
            "byteLength": 288
        },
        {
            "buffer": 0,
            "byteOffset": 11592,
            "byteLength": 192
        },
        {
            "buffer": 0,
            "byteOffset": 11784,
            "byteLength": 144
        },
        {
            "buffer": 0,
            "byteOffset": 11928,
            "byteLength": 288
        },
        {
            "buffer": 0,
            "byteOffset": 12216,
            "byteLength": 288
        },
        {
            "buffer": 0,
            "byteOffset": 12504,
            "byteLength": 192
        }
    ],
    "accessors": [
        {
            "bufferView": 0,
            "byteOffset": 0,
            "componentType": 5125,
            "count": 558,
            "type": "SCALAR"
        },
        {
            "bufferView": 1,
            "byteOffset": 0,
            "componentType": 5126,
            "count": 270,
            "min": [
                -6,
                0,
                -6
            ],
            "max": [
                6.023229360580444,
                4.994295716285706,
                6.003783702850342
            ],
            "type": "VEC3"
        },
        {
            "bufferView": 2,
            "byteOffset": 0,
            "componentType": 5126,
            "count": 270,
            "type": "VEC3"
        },
        {
            "bufferView": 3,
            "byteOffset": 0,
            "componentType": 5126,
            "count": 270,
            "type": "VEC2"
        },
        {
            "bufferView": 4,
            "byteOffset": 0,
            "componentType": 5125,
            "count": 36,
            "type": "SCALAR"
        },
        {
            "bufferView": 5,
            "byteOffset": 0,
            "componentType": 5126,
            "count": 24,
            "min": [
                -1.6679897904396057,
                0.006393909454345703,
                -2.529570162296295
            ],
            "max": [
                -0.6988810896873474,
                4.86302375793457,
                4.2623438239097595
            ],
            "type": "VEC3"
        },
        {
            "bufferView": 6,
            "byteOffset": 0,
            "componentType": 5126,
            "count": 24,
            "type": "VEC3"
        },
        {
            "bufferView": 7,
            "byteOffset": 0,
            "componentType": 5126,
            "count": 24,
            "type": "VEC2"
        },
        {
            "bufferView": 8,
            "byteOffset": 0,
            "componentType": 5125,
            "count": 36,
            "type": "SCALAR"
        },
        {
            "bufferView": 9,
            "byteOffset": 0,
            "componentType": 5126,
            "count": 24,
            "min": [
                -4.4359400272369385,
                0.022313356399536133,
                -4.877545714378357
            ],
            "max": [
                -3.9399421215057373,
                4.848657846450806,
                2.2754088640213013
            ],
            "type": "VEC3"
        },
        {
            "bufferView": 10,
            "byteOffset": 0,
            "componentType": 5126,
            "count": 24,
            "type": "VEC3"
        },
        {
            "bufferView": 11,
            "byteOffset": 0,
            "componentType": 5126,
            "count": 24,
            "type": "VEC2"
        }
    ]
}